<?xml version="1.0" standalone="no"?>
<!DOCTYPE svg PUBLIC "-//W3C//DTD SVG 20010904//EN"
        "http://www.w3.org/TR/2001/REC-SVG-20010904/DTD/svg10.dtd">
<svg version="1.0" xmlns="http://www.w3.org/2000/svg"
     width="953.000000pt" height="1280.000000pt" viewBox="0 0 953.000000 1280.000000"
     preserveAspectRatio="xMidYMid meet">
    <g id="main" transform="translate(0.000000,1280.000000) scale(0.100000,-0.100000)"
       fill="#000000" stroke="none">
        <path d="M4608 12763 c-20 -51 -27 -460 -27 -1713 -1 -685 -6 -1346 -11 -1470
-19 -423 -58 -784 -121 -1130 -60 -328 -241 -1155 -275 -1256 -26 -77 -78
-187 -134 -279 -69 -115 -122 -232 -169 -373 -66 -202 -67 -228 -3 -67 40 100
107 250 197 443 44 94 65 123 65 89 0 -36 -85 -275 -205 -577 -180 -451 -225
-607 -309 -1065 -178 -971 -226 -1872 -205 -3880 5 -561 7 -1116 3 -1232 -6
-193 -5 -213 10 -219 33 -13 75 16 100 70 46 96 51 151 48 556 -2 279 7 629
33 1365 19 545 40 1231 45 1525 23 1229 52 1636 155 2131 53 253 104 420 265
860 235 640 289 831 389 1389 115 639 153 946 182 1495 7 141 13 747 15 1695
2 811 5 1512 6 1557 1 55 -2 86 -11 97 -19 23 -30 20 -43 -11z"/>
        <path d="M3749 12773 c-40 -6 -50 -61 -59 -318 -29 -761 -271 -2270 -480
-2990 -103 -354 -293 -810 -455 -1090 -47 -81 -128 -175 -152 -175 -15 0 -218
304 -347 520 -105 175 -282 527 -356 705 -161 392 -266 805 -390 1539 -91 542
-111 708 -121 1026 -15 509 -42 693 -108 759 -12 12 -28 21 -38 21 -15 0 -16
-30 -10 -382 7 -398 17 -621 43 -918 112 -1313 432 -2489 969 -3560 131 -260
351 -649 368 -650 10 0 167 323 235 486 326 772 562 1706 732 2893 53 375 89
666 154 1256 90 808 96 867 90 876 -5 9 -26 9 -75 2z"/>
        <path d="M5426 12765 c-8 -21 11 -2027 24 -2535 6 -223 15 -700 20 -1060 6
-360 15 -711 20 -780 46 -580 125 -937 295 -1325 295 -677 449 -1224 554
-1975 58 -415 81 -763 88 -1330 7 -583 -9 -1011 -63 -1685 -14 -177 -24 -269
-89 -815 -64 -529 -137 -853 -252 -1118 -24 -57 -43 -106 -40 -108 2 -2 26 -1
53 2 69 9 119 62 163 174 143 362 229 1190 261 2510 27 1119 -10 2544 -75
2931 -34 202 -113 464 -314 1044 -171 492 -243 739 -286 980 -8 50 -22 119
-30 155 -37 162 -94 692 -115 1065 -19 336 -30 818 -30 1320 0 442 -7 879 -28
1830 -4 176 -4 370 -1 430 10 145 2 228 -25 268 -19 28 -28 32 -73 35 -39 2
-52 -1 -57 -13z"/>
        <path d="M7002 12773 l-24 -5 5 -2761 c3 -1603 9 -2917 16 -3132 16 -548 28
-902 61 -1690 16 -390 35 -861 42 -1045 17 -446 17 -1729 1 -1955 -7 -93 -18
-244 -23 -335 -11 -166 -40 -505 -61 -700 -18 -180 -48 -344 -104 -593 -66
-286 -85 -391 -85 -465 l0 -55 81 6 c92 7 137 28 158 71 9 20 16 103 22 275 4
135 13 350 18 476 60 1326 76 3095 46 4940 -25 1511 -60 6559 -48 6792 6 115
-5 159 -44 174 -13 5 -27 8 -31 8 -4 -1 -18 -4 -30 -6z"/>
        <path d="M7914 12765 c-3 -8 -1 -126 5 -262 19 -399 25 -1373 12 -1798 -28
-911 -54 -1182 -211 -2160 -38 -236 -76 -479 -85 -540 -9 -60 -22 -137 -30
-170 l-13 -60 -2 70 -2 70 -14 -109 c-41 -339 -59 -707 -73 -1486 -20 -1099
22 -2016 145 -3175 83 -788 108 -1052 136 -1450 7 -104 12 -381 13 -660 0
-508 -8 -635 -56 -880 -28 -149 -41 -135 116 -135 130 0 137 1 160 24 35 35
39 97 32 516 -17 943 -50 1378 -172 2270 -173 1259 -223 1698 -266 2320 -16
246 -23 1243 -10 1527 29 617 65 1001 161 1713 69 509 98 774 135 1230 28 348
114 1794 135 2280 6 124 17 294 25 379 28 290 18 410 -40 468 -36 36 -91 46
-101 18z m-327 -5027 c-3 -7 -5 -2 -5 12 0 14 2 19 5 13 2 -7 2 -19 0 -25z"/>
        <path d="M263 12755 c-51 -36 -62 -147 -43 -430 5 -82 14 -287 20 -455 20
-551 81 -1277 165 -1955 62 -497 177 -1039 341 -1605 63 -217 186 -594 388
-1185 347 -1018 535 -2077 630 -3540 28 -425 42 -729 71 -1535 9 -228 20 -534
25 -680 5 -146 9 -431 7 -635 -2 -387 3 -458 43 -587 26 -84 65 -128 113 -128
l34 0 7 82 c14 184 19 1388 7 1748 -40 1240 -140 2271 -336 3465 -170 1034
-226 1237 -582 2095 -277 666 -366 910 -443 1205 -255 978 -427 2589 -404
3783 7 401 8 393 -43 357z"/>
        <path d="M834 12563 c17 -511 54 -1134 92 -1543 64 -696 197 -1446 399 -2265
144 -581 238 -880 545 -1725 358 -989 479 -1392 550 -1834 62 -389 77 -696 90
-1746 5 -476 14 -1108 20 -1405 16 -898 16 -1182 1 -1424 -25 -387 14 -565
131 -590 18 -3 43 -5 56 -3 l23 4 -2 1796 c-2 1989 3 2240 62 2977 58 737 155
1363 304 1970 75 308 124 463 285 915 266 745 318 951 434 1722 141 928 195
1435 251 2318 24 389 55 1023 50 1028 -10 10 -35 -21 -49 -61 -27 -70 -36
-208 -36 -525 0 -328 -25 -660 -91 -1227 -114 -980 -332 -2023 -607 -2915
-117 -377 -314 -983 -328 -1010 -37 -69 8 106 132 519 52 172 93 315 91 317
-4 5 -186 -519 -242 -701 -141 -453 -272 -1088 -345 -1675 -11 -91 -23 -171
-25 -178 -10 -28 -24 2 -45 96 -30 132 -85 347 -120 462 -16 52 -56 192 -90
310 -147 520 -306 942 -439 1168 -17 28 -45 87 -63 129 -17 43 -44 90 -59 105
-34 35 -114 228 -94 228 2 0 18 -26 34 -57 17 -32 30 -56 31 -52 0 3 -29 84
-64 181 -139 379 -231 703 -340 1198 -206 934 -350 2067 -447 3518 l-12 182
-45 0 -45 0 7 -207z"/>
        <path d="M3337 12513 c-7 -279 -17 -412 -47 -656 -76 -598 -253 -1227 -518
-1842 -102 -236 -161 -355 -176 -355 -16 0 -68 88 -179 300 -138 265 -277 598
-388 930 -97 293 -112 359 -174 763 -30 199 -67 434 -81 522 -46 285 -105 555
-121 555 -16 0 28 -494 72 -815 129 -932 394 -1718 803 -2372 35 -57 67 -103
72 -103 15 0 103 104 155 185 178 272 291 624 409 1266 83 454 153 974 211
1574 31 327 32 305 -3 305 l-29 0 -6 -257z"/>
        <path d="M4378 12765 c-3 -3 -3 -121 0 -263 4 -238 -4 -479 -28 -792 -118
-1531 -199 -2334 -306 -3000 -39 -249 -46 -282 -68 -314 -8 -13 -29 -77 -47
-143 -61 -229 -160 -536 -318 -980 -274 -772 -321 -933 -411 -1383 -60 -301
-107 -695 -130 -1080 -26 -439 -31 -845 -37 -2757 l-6 -2023 82 0 c45 0 90 4
99 9 15 8 16 29 11 227 -40 1353 -36 2478 11 3429 23 461 79 1168 136 1715 62
607 88 740 209 1085 158 449 197 572 249 785 263 1078 431 2238 526 3640 38
569 90 1800 77 1834 -6 15 -38 22 -49 11z"/>
        <path d="M4923 12458 c4 -172 14 -1082 24 -2023 l17 -1710 -32 -135 c-17 -74
-43 -191 -58 -260 -100 -483 -139 -615 -369 -1240 -70 -190 -140 -383 -157
-430 -17 -47 -63 -170 -103 -275 -222 -584 -315 -1127 -370 -2170 -100 -1909
-111 -2201 -127 -3317 -13 -908 -15 -873 41 -866 16 2 30 12 37 28 7 16 18
209 28 530 77 2357 180 3708 371 4875 71 429 102 546 350 1295 181 546 237
735 279 942 29 140 56 314 56 357 0 34 18 87 26 78 3 -3 17 -72 31 -154 78
-469 251 -943 545 -1497 338 -635 472 -1040 552 -1659 56 -428 82 -1364 56
-1957 -30 -666 -70 -973 -207 -1580 -151 -672 -211 -982 -228 -1187 -7 -79 -7
-83 12 -83 31 0 71 47 89 104 10 34 20 139 29 311 l14 260 50 190 c144 539
252 1296 303 2120 33 534 2 1807 -53 2175 -43 283 -118 586 -206 820 -47 126
-120 270 -243 481 -190 325 -236 424 -340 740 -57 171 -84 275 -145 549 -24
107 -55 240 -69 295 -14 55 -40 181 -57 280 -29 167 -31 206 -40 535 -16 658
-30 3353 -18 3490 19 217 1 362 -49 389 -46 24 -45 29 -39 -301z"/>
        <path d="M8237 12763 c-4 -3 -7 -227 -7 -497 0 -1148 -56 -2229 -156 -3005
-64 -496 -217 -1517 -229 -1529 -3 -3 -6 10 -6 29 -2 44 -10 -19 -42 -336 -36
-356 -45 -500 -58 -935 -26 -894 41 -1536 247 -2363 241 -971 342 -1578 374
-2252 11 -229 7 -422 -30 -1455 -5 -146 -10 -296 -10 -333 l0 -68 42 3 c31 2
46 10 62 31 20 27 21 42 23 265 2 130 7 451 12 712 19 916 -16 1859 -99 2732
-30 311 -54 434 -185 973 -66 275 -97 434 -124 655 -56 445 -76 876 -68 1465
9 652 42 1141 158 2283 110 1098 136 1416 200 2452 16 258 16 791 0 910 -16
124 -38 208 -63 242 -20 28 -29 33 -41 21z"/>
        <path d="M8779 12768 c0 -2 -1 -415 -3 -918 -5 -1397 -16 -1498 -259 -2395
-122 -449 -150 -569 -241 -1048 -79 -410 -115 -704 -135 -1092 -35 -680 -16
-1335 55 -1824 49 -343 110 -582 224 -886 150 -397 216 -652 269 -1035 55
-395 59 -486 91 -2205 26 -1357 25 -1310 43 -1339 21 -31 25 -31 55 -8 20 16
24 27 24 88 5 448 -4 2470 -12 2694 -17 473 -52 905 -99 1232 -11 73 -25 174
-31 223 -17 124 -67 324 -140 554 -98 314 -188 660 -245 943 -95 474 -107 863
-44 1403 42 361 101 671 278 1445 179 785 222 1046 263 1580 15 200 17 1223 4
2033 l-9 557 -44 0 c-23 0 -43 -1 -44 -2z m-105 -2925 c-15 -112 -46 -237 -52
-209 -5 25 50 316 58 311 4 -2 1 -48 -6 -102z"/>
        <path d="M9374 12503 c-13 -437 -11 -1318 4 -1483 25 -286 92 -694 110 -675 3
3 5 292 3 643 -1 488 2 693 14 877 31 488 32 475 -7 719 -17 110 -57 186 -99
186 -15 0 -17 -25 -25 -267z"/>
        <path d="M6033 11163 c5 -1493 9 -1746 37 -2248 41 -737 117 -1375 241 -2015
231 -1196 310 -1793 349 -2620 28 -596 -8 -1832 -65 -2270 -9 -63 -24 -207
-35 -320 -63 -643 -142 -1079 -297 -1633 -5 -14 2 -17 44 -17 40 0 56 5 77 25
85 78 155 364 206 830 11 105 34 312 50 460 149 1362 164 2356 60 3975 -38
598 -57 767 -190 1730 -110 796 -152 1157 -149 1290 l1 45 13 -50 c17 -68 17
-52 0 95 -8 69 -23 211 -35 315 -11 105 -26 240 -35 300 -25 192 -74 922 -120
1805 -36 696 -46 1033 -43 1425 3 316 1 354 -15 395 -23 57 -44 80 -75 80
l-24 0 5 -1597z m402 -10615 c-18 -120 -79 -379 -95 -407 -16 -27 -12 9 9 102
31 130 80 348 87 390 3 21 9 36 11 33 3 -3 -2 -56 -12 -118z"/>
        <path d="M9063 11903 c4 -472 11 -997 17 -1168 5 -170 14 -452 20 -625 15
-427 37 -625 95 -824 13 -46 64 -191 114 -322 95 -255 150 -427 171 -536 24
-123 26 -111 46 297 5 102 1 165 -15 295 -25 191 -41 256 -122 478 -96 265
-107 321 -124 657 -42 830 -57 1227 -65 1690 -5 281 -14 555 -20 610 -20 180
-64 305 -107 305 -15 0 -16 -79 -10 -857z"/>
        <path d="M3516 12722 c-28 -55 -38 -153 -46 -477 -11 -414 -50 -802 -131
-1285 -68 -406 -206 -873 -355 -1205 -114 -253 -352 -645 -391 -645 -22 0
-155 131 -228 225 -199 255 -356 611 -484 1095 -78 296 -83 329 -171 1020
-110 875 -162 1204 -200 1268 -12 22 -13 33 5 -253 99 -1613 394 -2669 983
-3520 40 -58 76 -105 81 -105 15 0 136 154 217 277 328 494 536 1190 643 2158
29 260 47 487 75 940 14 220 28 430 31 468 6 72 -5 86 -29 39z"/>
        <path d="M2042 12350 c0 -19 2 -27 5 -17 2 9 2 25 0 35 -3 9 -5 1 -5 -18z"/>
        <path d="M2055 12247 c20 -242 116 -633 232 -937 90 -236 271 -599 293 -585
17 11 185 433 176 442 -7 7 -74 -127 -122 -247 -23 -58 -46 -103 -51 -101 -4
2 -22 44 -39 92 -18 48 -95 212 -173 363 -78 151 -154 315 -171 364 -41 123
-85 307 -120 508 -18 99 -28 141 -25 101z"/>
        <path d="M44 9275 c3 -296 0 -449 -10 -550 -7 -77 -14 -194 -14 -261 0 -150
16 -213 70 -266 33 -33 44 -38 84 -38 60 0 74 -8 171 -94 142 -126 207 -211
294 -383 148 -297 369 -1045 480 -1628 126 -667 291 -2023 350 -2890 40 -573
74 -1831 69 -2520 -3 -432 0 -471 43 -557 21 -40 45 -58 80 -58 l22 0 -6 828
c-9 1274 -56 2132 -183 3342 -145 1390 -259 2020 -520 2889 -156 518 -322 877
-540 1168 -38 49 -66 103 -94 176 -119 318 -214 690 -271 1062 l-29 190 4
-410z"/>
        <path d="M8965 8958 c-122 -313 -238 -688 -308 -998 -51 -221 -54 -259 -7 -90
102 370 146 515 192 640 66 179 148 360 162 360 30 0 127 -132 189 -255 19
-38 49 -110 66 -160 35 -99 44 -115 35 -64 -30 168 -100 402 -151 503 -36 71
-111 186 -121 186 -5 0 -31 -55 -57 -122z"/>
        <path d="M400 8427 c0 -3 44 -80 97 -169 53 -90 145 -257 205 -373 59 -115
108 -206 108 -202 1 35 -157 362 -246 508 -76 126 -164 252 -164 236z"/>
        <path d="M7911 8394 c0 -11 3 -14 6 -6 3 7 2 16 -1 19 -3 4 -6 -2 -5 -13z"/>
        <path d="M7641 8344 c0 -11 3 -14 6 -6 3 7 2 16 -1 19 -3 4 -6 -2 -5 -13z"/>
        <path d="M7901 8324 c0 -11 3 -14 6 -6 3 7 2 16 -1 19 -3 4 -6 -2 -5 -13z"/>
        <path d="M7632 8275 c0 -16 2 -22 5 -12 2 9 2 23 0 30 -3 6 -5 -1 -5 -18z"/>
        <path d="M7891 8254 c0 -11 3 -14 6 -6 3 7 2 16 -1 19 -3 4 -6 -2 -5 -13z"/>
        <path d="M6393 8225 c0 -22 2 -30 4 -17 2 12 2 30 0 40 -3 9 -5 -1 -4 -23z"/>
        <path d="M7622 8200 c0 -14 2 -19 5 -12 2 6 2 18 0 25 -3 6 -5 1 -5 -13z"/>
        <path d="M7881 8174 c0 -11 3 -14 6 -6 3 7 2 16 -1 19 -3 4 -6 -2 -5 -13z"/>
        <path d="M6402 8145 c0 -16 2 -22 5 -12 2 9 2 23 0 30 -3 6 -5 -1 -5 -18z"/>
        <path d="M7612 8125 c0 -16 2 -22 5 -12 2 9 2 23 0 30 -3 6 -5 -1 -5 -18z"/>
        <path d="M7871 8104 c0 -11 3 -14 6 -6 3 7 2 16 -1 19 -3 4 -6 -2 -5 -13z"/>
        <path d="M6412 8060 c0 -14 2 -19 5 -12 2 6 2 18 0 25 -3 6 -5 1 -5 -13z"/>
        <path d="M7602 8045 c0 -16 2 -22 5 -12 2 9 2 23 0 30 -3 6 -5 -1 -5 -18z"/>
        <path d="M7592 7970 c0 -19 2 -27 5 -17 2 9 2 25 0 35 -3 9 -5 1 -5 -18z"/>
        <path d="M7852 7950 c0 -14 2 -19 5 -12 2 6 2 18 0 25 -3 6 -5 1 -5 -13z"/>
        <path d="M37 7873 c-15 -177 -19 -322 -13 -368 7 -46 16 -57 145 -189 77 -79
159 -176 189 -220 123 -189 298 -574 375 -831 114 -376 243 -982 316 -1475 85
-583 117 -989 181 -2350 39 -820 67 -1396 80 -1636 6 -106 8 -252 4 -325 -8
-157 8 -336 33 -388 17 -33 47 -61 56 -51 4 5 -10 389 -63 1770 -43 1095 -103
1984 -185 2735 -30 272 -128 963 -150 1054 -8 35 -36 159 -60 277 -94 443
-237 972 -330 1219 -110 293 -277 560 -489 783 -38 39 -72 72 -76 72 -4 0 -10
-35 -13 -77z"/>
        <path d="M7842 7825 c0 -16 2 -22 5 -12 2 9 2 23 0 30 -3 6 -5 -1 -5 -18z"/>
        <path d="M4849 6831 c-26 -26 -60 -73 -77 -106 -39 -80 -162 -366 -206 -485
-163 -436 -273 -989 -341 -1715 -19 -212 -92 -1162 -105 -1390 -18 -287 -24
-1385 -11 -1858 9 -304 37 -1179 41 -1234 0 -2 20 -3 45 -3 42 0 45 2 40 23
-66 292 -79 626 -46 1267 11 228 28 577 36 775 62 1480 103 2027 195 2590 61
375 153 763 255 1070 100 302 231 615 257 615 7 0 45 -49 84 -108 462 -694
716 -1452 789 -2346 17 -217 20 -684 5 -921 -23 -353 -71 -752 -156 -1295 -69
-437 -102 -629 -128 -742 -49 -207 -58 -265 -61 -373 -1 -60 -14 -200 -29
-310 -28 -213 -31 -265 -17 -265 22 0 66 48 87 96 32 73 52 181 75 399 28 281
36 328 74 455 124 415 198 1014 247 1995 16 341 17 1305 0 1500 -49 574 -122
928 -288 1388 -107 295 -156 407 -180 407 -6 0 -31 30 -55 68 -79 121 -155
225 -234 317 -43 50 -81 100 -86 112 -4 12 -35 40 -68 62 -33 23 -63 45 -66
51 -11 18 -29 9 -76 -39z"/>
        <path d="M29 6678 c5 -13 22 -26 47 -33 21 -6 49 -17 62 -24 45 -24 20 1 -40
39 -70 46 -81 49 -69 18z"/>
        <path d="M26 6602 c-7 -48 12 -125 46 -184 15 -24 77 -98 138 -164 129 -137
152 -168 215 -290 63 -124 116 -265 184 -493 113 -378 166 -616 210 -936 35
-256 50 -433 93 -1100 16 -259 16 -1035 0 -1465 -7 -184 -17 -506 -22 -715
-12 -471 -32 -658 -96 -895 -30 -112 -92 -245 -128 -279 -14 -14 -26 -19 -26
-13 0 6 4 14 10 17 5 3 10 11 10 18 0 6 -16 -4 -35 -23 -19 -19 -35 -37 -35
-41 0 -4 84 -6 187 -6 l188 2 7 50 c33 239 65 769 79 1293 14 523 4 1065 -36
2016 -46 1081 -64 1286 -156 1791 -52 286 -82 419 -125 557 -49 155 -76 216
-84 193 -5 -14 -21 9 -63 88 -136 258 -296 447 -486 576 -33 23 -62 41 -64 41
-3 0 -7 -17 -11 -38z"/>
        <path d="M33 5860 c3 -19 0 -118 -5 -220 -13 -219 -9 -250 61 -510 165 -615
279 -1223 335 -1780 34 -338 41 -477 41 -915 0 -490 -4 -545 -66 -902 -70
-410 -128 -637 -212 -833 -125 -293 -152 -394 -146 -545 3 -70 8 -88 25 -106
31 -31 73 -18 140 43 98 90 147 178 222 398 109 321 159 623 183 1095 11 228
8 475 -11 1025 -6 146 -12 445 -15 665 -13 1043 -66 1525 -220 1992 -78 236
-221 512 -312 603 l-25 25 5 -35z m70 -120 c38 -45 102 -158 94 -167 -3 -2
-37 43 -76 101 -73 108 -81 139 -18 66z"/>
        <path d="M9463 5530 c-104 -476 -201 -1068 -242 -1485 -111 -1120 -152 -1964
-150 -3134 1 -683 6 -814 33 -857 18 -26 20 -27 27 -9 4 11 8 195 8 410 2 704
26 1519 61 2040 58 849 89 1110 180 1525 73 332 96 520 111 930 5 162 9 392 7
510 l-3 215 -32 -145z"/>
        <path d="M4897 5558 c-94 -163 -148 -311 -218 -598 -128 -524 -172 -843 -208
-1520 -43 -790 -48 -1658 -13 -2405 12 -253 25 -580 29 -727 l6 -268 49 0 48
0 0 308 c0 169 5 384 10 477 18 303 41 599 50 627 4 14 5 43 0 65 -13 63 -20
291 -8 269 6 -10 13 -77 16 -148 6 -149 22 -153 22 -6 0 105 -14 184 -59 335
-19 67 -37 164 -52 298 -21 176 -24 246 -24 590 0 311 4 423 18 555 51 461
155 893 293 1218 65 154 87 197 103 197 18 0 136 -225 217 -415 153 -358 243
-708 275 -1069 15 -173 7 -577 -15 -726 -43 -290 -67 -382 -183 -695 -90 -242
-139 -394 -173 -535 -53 -224 -55 -244 -54 -772 0 -444 2 -494 17 -517 29 -44
63 -59 133 -60 l63 -1 4 300 c6 373 28 546 148 1164 133 684 150 821 156 1273
15 1088 -127 1900 -445 2529 -73 144 -163 299 -173 299 -4 0 -18 -19 -32 -42z"/>
        <path d="M43 2712 c0 -848 2 -1356 8 -1337 18 58 78 371 98 510 43 297 55 477
55 825 0 379 -18 613 -74 958 -19 114 -77 402 -83 408 -1 1 -3 -613 -4 -1364z"/>
        <path d="M4936 3968 c-19 -40 -36 -86 -39 -103 -4 -17 7 -1 23 35 38 82 44 93
57 97 6 2 29 -31 52 -74 48 -89 45 -64 -5 45 -18 39 -38 72 -44 72 -6 0 -26
-33 -44 -72z"/>
        <path d="M9472 2825 c-57 -147 -92 -304 -146 -670 -64 -431 -80 -769 -71
-1535 4 -316 10 -579 12 -583 3 -5 16 1 29 14 45 42 62 130 74 387 5 107 28
392 50 635 22 243 44 510 50 592 11 174 33 1047 28 1150 l-3 70 -23 -60z"/>
        <path d="M4817 1045 c-9 -49 -22 -124 -28 -165 -14 -104 -24 -765 -11 -810
l10 -35 20 45 c37 82 46 191 44 565 -1 193 -5 382 -10 420 l-8 70 -17 -90z"/>
    </g>
</svg>
