<svg xmlns="http://www.w3.org/2000/svg" id="image-render" class="s-qAf7Zoh6MH1O" viewBox="0 0 1024 1024"
     style="background-color: rgb(17, 17, 17); fill: rgb(80, 111, 158); stroke: rgb(80, 111, 158); fill-opacity: 0.11; stroke-opacity: 1; stroke-width: 1;">
    <defs class="s-qAf7Zoh6MH1O">
        <filter id="f1" x="0" y="0" class="s-qAf7Zoh6MH1O">
            <feTurbulence type="fractalNoise" baseFrequency="0" numOctaves="2" result="turbulence"
                          class="s-qAf7Zoh6MH1O"/>
            <feDisplacementMap in2="turbulence" in="SourceGraphic" scale="100" xChannelSelector="R" yChannelSelector="G"
                               class="s-qAf7Zoh6MH1O"/>
        </filter>
        <filter id="f2" x="0" y="0" class="s-qAf7Zoh6MH1O">
            <feGaussianBlur in="SourceGraphic" stdDeviation="0" class="s-qAf7Zoh6MH1O"/>
        </filter>
        <filter id="f3" x="0" y="0" class="s-qAf7Zoh6MH1O">
            <feDropShadow dx="0" dy="0" stdDeviation="0" class="s-qAf7Zoh6MH1O"/>
        </filter>
        <filter id="noiseFilter" class="s-qAf7Zoh6MH1O">
            <feTurbulence type="fractalNoise" baseFrequency="0.5" numOctaves="2" stitchTiles="stitch"
                          class="s-qAf7Zoh6MH1O"/>
        </filter>
    </defs>
    <g filter="url(#f1) url(#f2) url(#f3)" class="s-qAf7Zoh6MH1O">
        <circle cx="1023" cy="-56" r="76"/>
        <circle cx="955" cy="249" r="65"/>
        <circle cx="406" cy="573" r="70"/>
        <circle cx="649" cy="515" r="59"/>
        <circle cx="1054" cy="506" r="71"/>
        <circle cx="679" cy="583" r="73"/>
        <circle cx="78" cy="805" r="55"/>
        <circle cx="622" cy="161" r="81"/>
        <circle cx="986" cy="419" r="92"/>
        <circle cx="602" cy="665" r="69"/>
        <circle cx="10" cy="967" r="80"/>
        <circle cx="195" cy="327" r="66"/>
        <circle cx="258" cy="-62" r="83"/>
        <circle cx="595" cy="-36" r="90"/>
        <circle cx="885" cy="725" r="73"/>
        <circle cx="315" cy="882" r="80"/>
        <circle cx="154" cy="85" r="55"/>
        <circle cx="907" cy="745" r="59"/>
        <circle cx="493" cy="357" r="55"/>
        <circle cx="518" cy="937" r="74"/>
        <circle cx="724" cy="1004" r="73"/>
        <circle cx="925" cy="776" r="79"/>
        <circle cx="917" cy="524" r="64"/>
        <circle cx="349" cy="250" r="60"/>
    </g>
</svg>
