<svg xmlns="http://www.w3.org/2000/svg" id="image-render" class="s-qAf7Zoh6MH1O" viewBox="0 0 1000 1000"
     style="background-color: rgb(17, 17, 17); fill: rgb(80, 111, 158); stroke: rgb(80, 111, 158); fill-opacity: 0; stroke-opacity: 0.49; stroke-width: 5;">
    <defs class="s-qAf7Zoh6MH1O">
        <filter id="f1" x="0" y="0" class="s-qAf7Zoh6MH1O">
            <feTurbulence type="fractalNoise" baseFrequency="0" numOctaves="2" result="turbulence"
                          class="s-qAf7Zoh6MH1O"/>
            <feDisplacementMap in2="turbulence" in="SourceGraphic" scale="100" xChannelSelector="R" yChannelSelector="G"
                               class="s-qAf7Zoh6MH1O"/>
        </filter>
        <filter id="f2" x="0" y="0" class="s-qAf7Zoh6MH1O">
            <feGaussianBlur in="SourceGraphic" stdDeviation="0" class="s-qAf7Zoh6MH1O"/>
        </filter>
        <filter id="f3" x="0" y="0" class="s-qAf7Zoh6MH1O">
            <feDropShadow dx="0" dy="0" stdDeviation="0" class="s-qAf7Zoh6MH1O"/>
        </filter>
        <filter id="noiseFilter" class="s-qAf7Zoh6MH1O">
            <feTurbulence type="fractalNoise" baseFrequency="0.5" numOctaves="2" stitchTiles="stitch"
                          class="s-qAf7Zoh6MH1O"/>
        </filter>
    </defs>
    <g filter="url(#f1) url(#f2) url(#f3)" class="s-qAf7Zoh6MH1O">
        <path d="M 167 -123 C 439 45 816 1102 1258 -59  S 299 644 251 163  S 481 -104 321 1035  S -67 260 -123 1039  S 1171 995 369 615  S 3 484 -167 -77  S 1230 697 605 1264  S 976 1175 33 1053  S 947 233 440 468  S 710 -177 1225 94  S 534 990 38 369  S 625 1085 230 337  S 1097 1005 775 367 "/>
    </g>
</svg>
