<svg xmlns="http://www.w3.org/2000/svg" id="image-render" viewBox="0 0 1920 1080" class="s-vPsapeJJeohc"
     style="background: rgb(107, 107, 107);">
    <defs class="s-vPsapeJJeohc">
        <linearGradient id="fillGradient" x1="50%" x2="50.00000000000001%" y1="100%" y2="0%"
                        gradientUnits="userSpaceOnUse" class="s-vPsapeJJeohc">
            <stop offset="0" stop-color="#050505" stop-opacity="1" class="s-vPsapeJJeohc"/>
        </linearGradient>
        <filter id="f1" x="0" y="0" class="s-vPsapeJJeohc">
            <feTurbulence type="fractalNoise" baseFrequency="0.035" numOctaves="2" result="turbulence"
                          class="s-vPsapeJJeohc"/>
            <feDisplacementMap in2="turbulence" in="SourceGraphic" scale="100" xChannelSelector="R" yChannelSelector="G"
                               class="s-vPsapeJJeohc"/>
        </filter>
        <filter id="f2" x="0" y="0" class="s-vPsapeJJeohc">
            <feGaussianBlur in="SourceGraphic" stdDeviation="0" class="s-vPsapeJJeohc"/>
        </filter>
        <filter id="f3" x="0" y="0" class="s-vPsapeJJeohc">
            <feDropShadow dx="0" dy="0" stdDeviation="0" class="s-vPsapeJJeohc"/>
        </filter>
    </defs>
    <g filter="url(#f1) url(#f2) url(#f3)" fill="url(#fillGradient)" class="s-vPsapeJJeohc"><circle cx="5" cy="-24"
                                                                                                    r="33"/>,<circle
            cx="29" cy="62" r="26"/>,<circle cx="-22" cy="147" r="45"/>,<circle cx="13" cy="211" r="37"/>,<circle
            cx="17" cy="285" r="21"/>,<circle cx="21" cy="308" r="42"/>,<circle cx="13" cy="401" r="31"/>,<circle
            cx="-11" cy="473" r="30"/>,<circle cx="-29" cy="528" r="49"/>,<circle cx="-18" cy="581" r="51"/>,<circle
            cx="23" cy="619" r="41"/>,<circle cx="23" cy="686" r="23"/>,<circle cx="22" cy="803" r="29"/>,<circle
            cx="-15" cy="844" r="18"/>,<circle cx="-32" cy="901" r="44"/>,<circle cx="20" cy="990" r="48"/>,<circle
            cx="-18" cy="1019" r="30"/>,<circle cx="-20" cy="1078" r="31"/>,<circle cx="77" cy="2" r="34"/>,<circle
            cx="52" cy="89" r="26"/>,<circle cx="67" cy="147" r="47"/>,<circle cx="53" cy="179" r="42"/>,<circle cx="77"
                                                                                                                 cy="289"
                                                                                                                 r="24"/>
        ,<circle cx="43" cy="303" r="53"/>,<circle cx="49" cy="400" r="47"/>,<circle cx="77" cy="432" r="37"/>,<circle
                cx="88" cy="534" r="18"/>,<circle cx="69" cy="587" r="23"/>,<circle cx="63" cy="637" r="27"/>,<circle
                cx="59" cy="726" r="45"/>,<circle cx="64" cy="793" r="25"/>,<circle cx="34" cy="871" r="18"/>,<circle
                cx="71" cy="903" r="22"/>,<circle cx="49" cy="978" r="28"/>,<circle cx="81" cy="1003" r="44"/>,<circle
                cx="45" cy="1072" r="40"/>,<circle cx="117" cy="-28" r="27"/>,<circle cx="160" cy="53" r="43"/>,<circle
                cx="117" cy="154" r="27"/>,<circle cx="124" cy="196" r="50"/>,<circle cx="105" cy="228" r="44"/>,<circle
                cx="137" cy="321" r="40"/>,<circle cx="143" cy="408" r="36"/>,<circle cx="143" cy="431" r="54"/>,<circle
                cx="130" cy="531" r="19"/>,<circle cx="102" cy="568" r="20"/>,<circle cx="150" cy="620" r="32"/>,<circle
                cx="156" cy="717" r="18"/>,<circle cx="97" cy="759" r="19"/>,<circle cx="112" cy="839" r="25"/>,<circle
                cx="153" cy="915" r="35"/>,<circle cx="138" cy="973" r="26"/>,<circle cx="149" cy="1023" r="37"/>,
        <circle cx="111" cy="1113" r="34"/>,<circle cx="181" cy="-1" r="26"/>,<circle cx="215" cy="71" r="37"/>,<circle
                cx="168" cy="133" r="44"/>,<circle cx="203" cy="182" r="30"/>,<circle cx="185" cy="230" r="52"/>,<circle
                cx="182" cy="295" r="44"/>,<circle cx="200" cy="379" r="47"/>,<circle cx="173" cy="434" r="54"/>,<circle
                cx="181" cy="493" r="50"/>,<circle cx="183" cy="552" r="32"/>,<circle cx="190" cy="654" r="34"/>,<circle
                cx="200" cy="694" r="22"/>,<circle cx="215" cy="756" r="44"/>,<circle cx="216" cy="856" r="44"/>,<circle
                cx="196" cy="889" r="29"/>,<circle cx="220" cy="993" r="49"/>,<circle cx="174" cy="1037" r="52"/>,
        <circle cx="184" cy="1082" r="53"/>,<circle cx="271" cy="-6" r="32"/>,<circle cx="263" cy="59" r="26"/>,<circle
                cx="252" cy="100" r="22"/>,<circle cx="247" cy="185" r="27"/>,<circle cx="269" cy="250" r="24"/>,<circle
                cx="227" cy="353" r="24"/>,<circle cx="245" cy="390" r="50"/>,<circle cx="277" cy="420" r="31"/>,<circle
                cx="282" cy="538" r="47"/>,<circle cx="259" cy="578" r="46"/>,<circle cx="282" cy="644" r="33"/>,<circle
                cx="268" cy="688" r="46"/>,<circle cx="270" cy="759" r="53"/>,<circle cx="289" cy="859" r="18"/>,<circle
                cx="251" cy="902" r="35"/>,<circle cx="243" cy="969" r="27"/>,<circle cx="238" cy="1007" r="32"/>,
        <circle cx="255" cy="1105" r="38"/>,<circle cx="330" cy="-2" r="42"/>,<circle cx="318" cy="36" r="41"/>,<circle
                cx="341" cy="152" r="35"/>,<circle cx="343" cy="175" r="54"/>,<circle cx="329" cy="266" r="54"/>,<circle
                cx="316" cy="339" r="28"/>,<circle cx="355" cy="372" r="47"/>,<circle cx="318" cy="452" r="43"/>,<circle
                cx="299" cy="498" r="54"/>,<circle cx="313" cy="578" r="54"/>,<circle cx="340" cy="614" r="31"/>,<circle
                cx="324" cy="679" r="22"/>,<circle cx="300" cy="784" r="35"/>,<circle cx="303" cy="808" r="34"/>,<circle
                cx="319" cy="913" r="48"/>,<circle cx="339" cy="961" r="41"/>,<circle cx="353" cy="1030" r="20"/>,
        <circle cx="330" cy="1118" r="19"/>,<circle cx="416" cy="14" r="52"/>,<circle cx="371" cy="83" r="22"/>,<circle
                cx="386" cy="105" r="52"/>,<circle cx="416" cy="184" r="24"/>,<circle cx="379" cy="229" r="47"/>,<circle
                cx="386" cy="328" r="38"/>,<circle cx="372" cy="360" r="39"/>,<circle cx="377" cy="471" r="30"/>,<circle
                cx="416" cy="522" r="18"/>,<circle cx="392" cy="579" r="52"/>,<circle cx="378" cy="648" r="38"/>,<circle
                cx="389" cy="711" r="30"/>,<circle cx="383" cy="743" r="34"/>,<circle cx="416" cy="855" r="27"/>,<circle
                cx="378" cy="873" r="46"/>,<circle cx="391" cy="998" r="47"/>,<circle cx="377" cy="1000" r="42"/>,
        <circle cx="402" cy="1115" r="53"/>,<circle cx="455" cy="-21" r="24"/>,<circle cx="441" cy="66" r="49"/>,<circle
                cx="458" cy="117" r="43"/>,<circle cx="469" cy="205" r="35"/>,<circle cx="451" cy="237" r="52"/>,<circle
                cx="443" cy="334" r="34"/>,<circle cx="448" cy="417" r="29"/>,<circle cx="455" cy="447" r="34"/>,<circle
                cx="420" cy="500" r="44"/>,<circle cx="479" cy="571" r="43"/>,<circle cx="444" cy="630" r="25"/>,<circle
                cx="424" cy="734" r="38"/>,<circle cx="472" cy="750" r="33"/>,<circle cx="432" cy="826" r="36"/>,<circle
                cx="440" cy="893" r="30"/>,<circle cx="457" cy="935" r="50"/>,<circle cx="448" cy="1062" r="25"/>,
        <circle cx="446" cy="1117" r="53"/>,<circle cx="528" cy="30" r="50"/>,<circle cx="530" cy="61" r="30"/>,<circle
                cx="511" cy="158" r="43"/>,<circle cx="511" cy="188" r="24"/>,<circle cx="491" cy="250" r="48"/>,<circle
                cx="544" cy="322" r="19"/>,<circle cx="544" cy="405" r="50"/>,<circle cx="521" cy="452" r="40"/>,<circle
                cx="499" cy="511" r="47"/>,<circle cx="523" cy="565" r="37"/>,<circle cx="526" cy="658" r="51"/>,<circle
                cx="541" cy="710" r="29"/>,<circle cx="526" cy="753" r="35"/>,<circle cx="513" cy="821" r="44"/>,<circle
                cx="543" cy="904" r="47"/>,<circle cx="490" cy="941" r="28"/>,<circle cx="511" cy="1029" r="44"/>,
        <circle cx="502" cy="1103" r="50"/>,<circle cx="591" cy="29" r="24"/>,<circle cx="586" cy="45" r="52"/>,<circle
                cx="569" cy="120" r="32"/>,<circle cx="574" cy="223" r="34"/>,<circle cx="553" cy="248" r="31"/>,<circle
                cx="605" cy="338" r="49"/>,<circle cx="554" cy="382" r="18"/>,<circle cx="569" cy="468" r="23"/>,<circle
                cx="587" cy="548" r="25"/>,<circle cx="549" cy="595" r="44"/>,<circle cx="606" cy="672" r="25"/>,<circle
                cx="556" cy="708" r="32"/>,<circle cx="558" cy="753" r="47"/>,<circle cx="558" cy="810" r="40"/>,<circle
                cx="566" cy="897" r="42"/>,<circle cx="581" cy="944" r="28"/>,<circle cx="564" cy="1046" r="40"/>,
        <circle cx="590" cy="1071" r="54"/>,<circle cx="645" cy="-32" r="25"/>,<circle cx="640" cy="82" r="20"/>,<circle
                cx="618" cy="140" r="27"/>,<circle cx="640" cy="212" r="25"/>,<circle cx="663" cy="248" r="54"/>,<circle
                cx="625" cy="293" r="25"/>,<circle cx="635" cy="370" r="33"/>,<circle cx="634" cy="441" r="41"/>,<circle
                cx="632" cy="509" r="35"/>,<circle cx="648" cy="584" r="45"/>,<circle cx="652" cy="678" r="22"/>,<circle
                cx="636" cy="735" r="42"/>,<circle cx="638" cy="748" r="54"/>,<circle cx="629" cy="808" r="19"/>,<circle
                cx="646" cy="899" r="37"/>,<circle cx="644" cy="960" r="48"/>,<circle cx="624" cy="1028" r="35"/>,
        <circle cx="657" cy="1091" r="42"/>,<circle cx="738" cy="17" r="41"/>,<circle cx="700" cy="54" r="31"/>,<circle
                cx="720" cy="143" r="54"/>,<circle cx="721" cy="194" r="19"/>,<circle cx="721" cy="283" r="39"/>,<circle
                cx="732" cy="309" r="18"/>,<circle cx="689" cy="411" r="32"/>,<circle cx="696" cy="467" r="30"/>,<circle
                cx="718" cy="523" r="18"/>,<circle cx="696" cy="589" r="18"/>,<circle cx="732" cy="660" r="38"/>,<circle
                cx="679" cy="698" r="37"/>,<circle cx="695" cy="791" r="47"/>,<circle cx="684" cy="854" r="54"/>,<circle
                cx="725" cy="933" r="52"/>,<circle cx="737" cy="1000" r="48"/>,<circle cx="699" cy="1031" r="37"/>,
        <circle cx="707" cy="1102" r="54"/>,<circle cx="793" cy="3" r="21"/>,<circle cx="775" cy="82" r="46"/>,<circle
                cx="799" cy="124" r="42"/>,<circle cx="748" cy="169" r="45"/>,<circle cx="763" cy="242" r="29"/>,<circle
                cx="799" cy="292" r="40"/>,<circle cx="744" cy="388" r="21"/>,<circle cx="786" cy="469" r="36"/>,<circle
                cx="772" cy="488" r="47"/>,<circle cx="765" cy="604" r="40"/>,<circle cx="758" cy="643" r="45"/>,<circle
                cx="806" cy="713" r="36"/>,<circle cx="773" cy="752" r="30"/>,<circle cx="750" cy="849" r="31"/>,<circle
                cx="772" cy="901" r="18"/>,<circle cx="751" cy="998" r="40"/>,<circle cx="799" cy="1040" r="48"/>,
        <circle cx="775" cy="1075" r="32"/>,<circle cx="864" cy="-4" r="31"/>,<circle cx="842" cy="96" r="21"/>,<circle
                cx="842" cy="115" r="18"/>,<circle cx="860" cy="163" r="48"/>,<circle cx="831" cy="267" r="18"/>,<circle
                cx="869" cy="291" r="31"/>,<circle cx="841" cy="375" r="45"/>,<circle cx="866" cy="460" r="27"/>,<circle
                cx="850" cy="543" r="41"/>,<circle cx="827" cy="562" r="49"/>,<circle cx="860" cy="652" r="45"/>,<circle
                cx="866" cy="726" r="38"/>,<circle cx="810" cy="772" r="23"/>,<circle cx="814" cy="842" r="18"/>,<circle
                cx="809" cy="906" r="40"/>,<circle cx="830" cy="988" r="30"/>,<circle cx="809" cy="1024" r="37"/>,
        <circle cx="845" cy="1086" r="54"/>,<circle cx="923" cy="1" r="34"/>,<circle cx="871" cy="42" r="22"/>,<circle
                cx="933" cy="156" r="24"/>,<circle cx="881" cy="192" r="52"/>,<circle cx="932" cy="258" r="50"/>,<circle
                cx="932" cy="294" r="52"/>,<circle cx="932" cy="415" r="26"/>,<circle cx="918" cy="473" r="22"/>,<circle
                cx="872" cy="498" r="51"/>,<circle cx="881" cy="597" r="49"/>,<circle cx="920" cy="665" r="24"/>,<circle
                cx="895" cy="707" r="28"/>,<circle cx="928" cy="779" r="22"/>,<circle cx="889" cy="811" r="50"/>,<circle
                cx="901" cy="893" r="34"/>,<circle cx="913" cy="945" r="32"/>,<circle cx="890" cy="1041" r="20"/>,
        <circle cx="899" cy="1065" r="29"/>,<circle cx="942" cy="-19" r="25"/>,<circle cx="969" cy="42" r="25"/>,<circle
                cx="966" cy="138" r="44"/>,<circle cx="938" cy="217" r="42"/>,<circle cx="980" cy="267" r="33"/>,<circle
                cx="948" cy="341" r="54"/>,<circle cx="935" cy="389" r="27"/>,<circle cx="982" cy="479" r="42"/>,<circle
                cx="973" cy="537" r="24"/>,<circle cx="996" cy="607" r="38"/>,<circle cx="948" cy="670" r="22"/>,<circle
                cx="977" cy="686" r="31"/>,<circle cx="943" cy="789" r="32"/>,<circle cx="984" cy="841" r="24"/>,<circle
                cx="948" cy="878" r="39"/>,<circle cx="992" cy="940" r="52"/>,<circle cx="990" cy="1014" r="21"/>,
        <circle cx="980" cy="1107" r="30"/>,<circle cx="1037" cy="6" r="49"/>,<circle cx="1018" cy="32" r="32"/>,<circle
                cx="1053" cy="106" r="20"/>,<circle cx="1057" cy="165" r="29"/>,<circle cx="1058" cy="286" r="33"/>,
        <circle cx="1036" cy="317" r="26"/>,<circle cx="1024" cy="373" r="35"/>,<circle cx="1057" cy="425" r="42"/>,
        <circle cx="1047" cy="484" r="26"/>,<circle cx="1000" cy="584" r="46"/>,<circle cx="1042" cy="663" r="34"/>,
        <circle cx="1035" cy="689" r="38"/>,<circle cx="1040" cy="758" r="54"/>,<circle cx="1031" cy="847" r="19"/>,
        <circle cx="1001" cy="933" r="45"/>,<circle cx="1022" cy="946" r="18"/>,<circle cx="1050" cy="1055" r="39"/>,
        <circle cx="1038" cy="1090" r="22"/>,<circle cx="1127" cy="1" r="48"/>,<circle cx="1079" cy="62" r="31"/>,
        <circle cx="1124" cy="132" r="53"/>,<circle cx="1073" cy="164" r="25"/>,<circle cx="1074" cy="272" r="48"/>,
        <circle cx="1069" cy="327" r="52"/>,<circle cx="1084" cy="378" r="24"/>,<circle cx="1117" cy="474" r="44"/>,
        <circle cx="1097" cy="487" r="20"/>,<circle cx="1076" cy="583" r="26"/>,<circle cx="1088" cy="650" r="39"/>,
        <circle cx="1129" cy="709" r="47"/>,<circle cx="1101" cy="757" r="53"/>,<circle cx="1083" cy="859" r="34"/>,
        <circle cx="1100" cy="932" r="25"/>,<circle cx="1066" cy="964" r="30"/>,<circle cx="1124" cy="1049" r="40"/>,
        <circle cx="1065" cy="1076" r="33"/>,<circle cx="1148" cy="7" r="27"/>,<circle cx="1170" cy="82" r="32"/>,
        <circle cx="1159" cy="106" r="22"/>,<circle cx="1165" cy="213" r="30"/>,<circle cx="1133" cy="231" r="28"/>,
        <circle cx="1135" cy="326" r="45"/>,<circle cx="1148" cy="400" r="47"/>,<circle cx="1173" cy="434" r="20"/>,
        <circle cx="1147" cy="542" r="36"/>,<circle cx="1169" cy="579" r="52"/>,<circle cx="1166" cy="618" r="54"/>,
        <circle cx="1152" cy="679" r="40"/>,<circle cx="1132" cy="743" r="44"/>,<circle cx="1170" cy="815" r="35"/>,
        <circle cx="1162" cy="909" r="33"/>,<circle cx="1133" cy="954" r="47"/>,<circle cx="1194" cy="1040" r="30"/>,
        <circle cx="1189" cy="1068" r="24"/>,<circle cx="1211" cy="-11" r="30"/>,<circle cx="1230" cy="78" r="51"/>,
        <circle cx="1246" cy="129" r="48"/>,<circle cx="1212" cy="215" r="25"/>,<circle cx="1223" cy="248" r="29"/>,
        <circle cx="1222" cy="347" r="45"/>,<circle cx="1236" cy="389" r="44"/>,<circle cx="1194" cy="438" r="28"/>,
        <circle cx="1231" cy="530" r="42"/>,<circle cx="1229" cy="611" r="20"/>,<circle cx="1254" cy="651" r="27"/>,
        <circle cx="1218" cy="685" r="18"/>,<circle cx="1205" cy="784" r="29"/>,<circle cx="1207" cy="856" r="41"/>,
        <circle cx="1251" cy="883" r="28"/>,<circle cx="1232" cy="980" r="47"/>,<circle cx="1196" cy="1001" r="41"/>,
        <circle cx="1235" cy="1104" r="31"/>,<circle cx="1298" cy="25" r="43"/>,<circle cx="1287" cy="57" r="45"/>,
        <circle cx="1309" cy="153" r="37"/>,<circle cx="1265" cy="197" r="18"/>,<circle cx="1266" cy="237" r="22"/>,
        <circle cx="1266" cy="291" r="22"/>,<circle cx="1271" cy="374" r="19"/>,<circle cx="1319" cy="476" r="44"/>,
        <circle cx="1314" cy="508" r="34"/>,<circle cx="1300" cy="554" r="41"/>,<circle cx="1269" cy="676" r="41"/>,
        <circle cx="1261" cy="684" r="28"/>,<circle cx="1303" cy="779" r="52"/>,<circle cx="1301" cy="854" r="19"/>,
        <circle cx="1264" cy="933" r="20"/>,<circle cx="1278" cy="935" r="46"/>,<circle cx="1264" cy="1015" r="52"/>,
        <circle cx="1317" cy="1089" r="51"/>,<circle cx="1355" cy="24" r="36"/>,<circle cx="1374" cy="58" r="18"/>,
        <circle cx="1356" cy="148" r="37"/>,<circle cx="1335" cy="168" r="50"/>,<circle cx="1352" cy="236" r="54"/>,
        <circle cx="1350" cy="293" r="45"/>,<circle cx="1338" cy="402" r="35"/>,<circle cx="1331" cy="460" r="27"/>,
        <circle cx="1368" cy="491" r="53"/>,<circle cx="1385" cy="586" r="52"/>,<circle cx="1328" cy="663" r="19"/>,
        <circle cx="1350" cy="694" r="40"/>,<circle cx="1345" cy="758" r="53"/>,<circle cx="1372" cy="815" r="45"/>,
        <circle cx="1367" cy="887" r="46"/>,<circle cx="1355" cy="976" r="37"/>,<circle cx="1383" cy="1033" r="42"/>,
        <circle cx="1376" cy="1129" r="23"/>,<circle cx="1450" cy="14" r="36"/>,<circle cx="1442" cy="94" r="42"/>,
        <circle cx="1395" cy="152" r="22"/>,<circle cx="1449" cy="193" r="22"/>,<circle cx="1397" cy="229" r="50"/>,
        <circle cx="1408" cy="344" r="29"/>,<circle cx="1407" cy="362" r="20"/>,<circle cx="1425" cy="462" r="52"/>,
        <circle cx="1449" cy="512" r="26"/>,<circle cx="1451" cy="564" r="23"/>,<circle cx="1421" cy="614" r="35"/>,
        <circle cx="1393" cy="689" r="19"/>,<circle cx="1425" cy="799" r="22"/>,<circle cx="1450" cy="848" r="54"/>,
        <circle cx="1397" cy="907" r="23"/>,<circle cx="1402" cy="960" r="42"/>,<circle cx="1421" cy="1052" r="52"/>,
        <circle cx="1417" cy="1107" r="35"/>,<circle cx="1472" cy="-15" r="29"/>,<circle cx="1493" cy="63" r="36"/>,
        <circle cx="1478" cy="147" r="35"/>,<circle cx="1464" cy="171" r="36"/>,<circle cx="1514" cy="239" r="51"/>,
        <circle cx="1495" cy="332" r="27"/>,<circle cx="1489" cy="414" r="18"/>,<circle cx="1476" cy="443" r="19"/>,
        <circle cx="1494" cy="502" r="31"/>,<circle cx="1471" cy="611" r="31"/>,<circle cx="1510" cy="631" r="53"/>,
        <circle cx="1462" cy="712" r="24"/>,<circle cx="1462" cy="761" r="32"/>,<circle cx="1458" cy="838" r="45"/>,
        <circle cx="1459" cy="909" r="45"/>,<circle cx="1497" cy="999" r="44"/>,<circle cx="1491" cy="1030" r="40"/>,
        <circle cx="1489" cy="1077" r="39"/>,<circle cx="1536" cy="0" r="18"/>,<circle cx="1554" cy="62" r="33"/>,
        <circle cx="1550" cy="106" r="50"/>,<circle cx="1544" cy="185" r="20"/>,<circle cx="1562" cy="227" r="32"/>,
        <circle cx="1524" cy="305" r="27"/>,<circle cx="1579" cy="375" r="49"/>,<circle cx="1547" cy="432" r="24"/>,
        <circle cx="1522" cy="534" r="30"/>,<circle cx="1556" cy="589" r="40"/>,<circle cx="1557" cy="672" r="26"/>,
        <circle cx="1531" cy="724" r="38"/>,<circle cx="1540" cy="784" r="18"/>,<circle cx="1520" cy="840" r="48"/>,
        <circle cx="1579" cy="878" r="54"/>,<circle cx="1516" cy="997" r="34"/>,<circle cx="1574" cy="1008" r="29"/>,
        <circle cx="1578" cy="1108" r="24"/>,<circle cx="1615" cy="-6" r="54"/>,<circle cx="1639" cy="83" r="42"/>,
        <circle cx="1592" cy="114" r="21"/>,<circle cx="1604" cy="195" r="41"/>,<circle cx="1593" cy="262" r="38"/>,
        <circle cx="1596" cy="317" r="20"/>,<circle cx="1594" cy="369" r="36"/>,<circle cx="1584" cy="429" r="35"/>,
        <circle cx="1636" cy="538" r="53"/>,<circle cx="1637" cy="584" r="29"/>,<circle cx="1596" cy="618" r="26"/>,
        <circle cx="1643" cy="687" r="53"/>,<circle cx="1623" cy="742" r="45"/>,<circle cx="1620" cy="819" r="54"/>,
        <circle cx="1584" cy="927" r="27"/>,<circle cx="1622" cy="952" r="24"/>,<circle cx="1584" cy="1000" r="28"/>,
        <circle cx="1622" cy="1074" r="24"/>,<circle cx="1649" cy="-21" r="36"/>,<circle cx="1689" cy="86" r="40"/>,
        <circle cx="1682" cy="120" r="36"/>,<circle cx="1697" cy="176" r="38"/>,<circle cx="1706" cy="257" r="54"/>,
        <circle cx="1675" cy="314" r="25"/>,<circle cx="1660" cy="380" r="37"/>,<circle cx="1651" cy="465" r="36"/>,
        <circle cx="1696" cy="527" r="37"/>,<circle cx="1661" cy="597" r="41"/>,<circle cx="1660" cy="654" r="40"/>,
        <circle cx="1653" cy="710" r="49"/>,<circle cx="1656" cy="795" r="51"/>,<circle cx="1673" cy="812" r="21"/>,
        <circle cx="1695" cy="928" r="30"/>,<circle cx="1689" cy="953" r="36"/>,<circle cx="1649" cy="1025" r="31"/>,
        <circle cx="1693" cy="1065" r="28"/>,<circle cx="1712" cy="32" r="25"/>,<circle cx="1715" cy="42" r="54"/>,
        <circle cx="1769" cy="122" r="30"/>,<circle cx="1710" cy="189" r="26"/>,<circle cx="1739" cy="228" r="41"/>,
        <circle cx="1735" cy="305" r="31"/>,<circle cx="1710" cy="407" r="30"/>,<circle cx="1740" cy="478" r="38"/>,
        <circle cx="1730" cy="516" r="31"/>,<circle cx="1741" cy="598" r="38"/>,<circle cx="1751" cy="642" r="48"/>,
        <circle cx="1742" cy="681" r="35"/>,<circle cx="1771" cy="770" r="36"/>,<circle cx="1774" cy="830" r="33"/>,
        <circle cx="1711" cy="886" r="41"/>,<circle cx="1724" cy="951" r="28"/>,<circle cx="1716" cy="1064" r="33"/>,
        <circle cx="1773" cy="1099" r="49"/>,<circle cx="1826" cy="1" r="30"/>,<circle cx="1798" cy="46" r="46"/>,
        <circle cx="1812" cy="106" r="37"/>,<circle cx="1776" cy="192" r="18"/>,<circle cx="1824" cy="271" r="20"/>,
        <circle cx="1836" cy="330" r="26"/>,<circle cx="1798" cy="366" r="18"/>,<circle cx="1780" cy="482" r="44"/>,
        <circle cx="1793" cy="518" r="28"/>,<circle cx="1828" cy="605" r="22"/>,<circle cx="1821" cy="638" r="36"/>,
        <circle cx="1832" cy="706" r="19"/>,<circle cx="1781" cy="755" r="26"/>,<circle cx="1801" cy="862" r="21"/>,
        <circle cx="1783" cy="934" r="34"/>,<circle cx="1826" cy="958" r="40"/>,<circle cx="1823" cy="1058" r="51"/>,
        <circle cx="1780" cy="1068" r="32"/>,<circle cx="1849" cy="-4" r="29"/>,<circle cx="1898" cy="73" r="45"/>,
        <circle cx="1843" cy="137" r="27"/>,<circle cx="1875" cy="167" r="34"/>,<circle cx="1902" cy="276" r="26"/>,
        <circle cx="1854" cy="317" r="25"/>,<circle cx="1899" cy="405" r="33"/>,<circle cx="1865" cy="433" r="32"/>,
        <circle cx="1884" cy="511" r="19"/>,<circle cx="1847" cy="549" r="31"/>,<circle cx="1856" cy="669" r="19"/>,
        <circle cx="1862" cy="693" r="28"/>,<circle cx="1870" cy="780" r="42"/>,<circle cx="1871" cy="859" r="25"/>,
        <circle cx="1879" cy="926" r="44"/>,<circle cx="1880" cy="996" r="53"/>,<circle cx="1845" cy="1001" r="18"/>,
        <circle cx="1850" cy="1085" r="38"/>,<circle cx="1950" cy="21" r="34"/>,<circle cx="1954" cy="74" r="48"/>,
        <circle cx="1952" cy="131" r="46"/>,<circle cx="1930" cy="200" r="28"/>,<circle cx="1913" cy="248" r="36"/>,
        <circle cx="1967" cy="308" r="27"/>,<circle cx="1924" cy="415" r="49"/>,<circle cx="1909" cy="449" r="47"/>,
        <circle cx="1965" cy="496" r="51"/>,<circle cx="1966" cy="570" r="33"/>,<circle cx="1961" cy="652" r="46"/>,
        <circle cx="1955" cy="702" r="47"/>,<circle cx="1930" cy="788" r="51"/>,<circle cx="1954" cy="837" r="34"/>,
        <circle cx="1934" cy="899" r="23"/>,<circle cx="1957" cy="982" r="52"/>,<circle cx="1958" cy="1039" r="46"/>,
        <circle cx="1931" cy="1068" r="27"/>
    </g>
</svg>
